<svg width="138" height="39" viewBox="0 0 138 39" fill="none" xmlns="http://www.w3.org/2000/svg">
<g clip-path="url(#clip0_4_2543)">
<path d="M50.1792 28.0826V12.7742C50.1792 12.7465 50.1847 12.7193 50.1952 12.6937C50.2058 12.6682 50.2213 12.645 50.2408 12.6255C50.2604 12.6059 50.2836 12.5904 50.3091 12.5799C50.3346 12.5693 50.362 12.5638 50.3896 12.5638H53.9876C54.0162 12.5641 54.0444 12.5699 54.0707 12.5811C54.097 12.5922 54.1208 12.6084 54.1409 12.6288C54.1609 12.6492 54.1767 12.6733 54.1874 12.6997C54.1982 12.7262 54.2036 12.7546 54.2033 12.7831C54.1752 13.9737 53.9116 15.1468 53.4277 16.2349C53.3725 16.3534 53.3479 16.4838 53.3562 16.6142C53.3645 16.7446 53.4054 16.8709 53.4751 16.9814C53.5448 17.092 53.6412 17.1832 53.7553 17.2469C53.8695 17.3105 53.9978 17.3445 54.1285 17.3457C54.3024 17.3443 54.4709 17.2853 54.6077 17.1778C54.7445 17.0704 54.8418 16.9206 54.8844 16.7519C55.2743 15.2721 55.8133 14.175 56.5015 13.4606C57.2777 12.6547 58.4628 12.2512 60.0568 12.25C60.3884 12.25 60.638 12.2501 60.8002 12.2625C60.8542 12.2653 60.905 12.2887 60.9421 12.3278C60.9793 12.367 61 12.4189 60.9999 12.4729V16.645C60.9996 16.6743 60.9931 16.703 60.981 16.7297C60.9689 16.7563 60.9514 16.78 60.9296 16.7995C60.9078 16.8189 60.8822 16.8336 60.8544 16.8427C60.8266 16.8517 60.7972 16.8548 60.7681 16.8518C60.244 16.8042 59.7441 16.7799 59.2687 16.7788C57.5915 16.7788 56.4029 17.1775 55.7028 17.9751C55.0027 18.7727 54.6514 20.199 54.6491 22.2542V28.0844C54.6491 28.1119 54.6436 28.1392 54.633 28.1646C54.6224 28.19 54.6069 28.2131 54.5873 28.2325C54.5678 28.2519 54.5446 28.2672 54.519 28.2776C54.4935 28.288 54.4662 28.2932 54.4387 28.2929H50.3932C50.3652 28.2937 50.3373 28.2888 50.3113 28.2785C50.2852 28.2682 50.2615 28.2529 50.2415 28.2332C50.2216 28.2136 50.2058 28.1901 50.1951 28.1642C50.1843 28.1383 50.179 28.1106 50.1792 28.0826Z" fill="white"/>
<path d="M62.0464 20.3969C62.0464 17.9864 62.8012 15.9996 64.3107 14.4366C65.8203 12.8735 67.7179 12.0926 70.0037 12.0938C72.3726 12.0938 74.2394 12.8693 75.6039 14.4205C76.9685 15.9716 77.6495 17.9745 77.6472 20.429C77.6472 20.7856 77.6471 21.0833 77.6293 21.3026C77.6266 21.3559 77.6033 21.4061 77.5645 21.4426C77.5256 21.4792 77.4741 21.4993 77.4207 21.4988H66.7409C66.7115 21.499 66.6824 21.5052 66.6554 21.517C66.6285 21.5288 66.6043 21.546 66.5842 21.5676C66.5642 21.5891 66.5488 21.6145 66.5389 21.6423C66.5291 21.67 66.525 21.6994 66.5269 21.7288C66.6196 22.8948 66.9608 23.7863 67.5504 24.4032C68.1791 25.0629 69.0076 25.3927 70.0358 25.3927C71.6167 25.3927 72.8053 24.5411 73.6017 22.8378C73.6236 22.7895 73.663 22.7512 73.7119 22.7307C73.7609 22.7102 73.8157 22.709 73.8655 22.7273L77.4653 24.1162C77.4926 24.1267 77.5174 24.1427 77.5383 24.1631C77.5593 24.1835 77.5758 24.2079 77.587 24.2349C77.5981 24.2619 77.6037 24.291 77.6033 24.3203C77.603 24.3495 77.5966 24.3782 77.5847 24.405C76.998 25.6195 76.1226 26.6719 75.0352 27.4699C73.8465 28.3507 72.1825 28.791 70.0429 28.791C67.6324 28.791 65.6979 28.0309 64.2394 26.5106C62.781 24.9904 62.05 22.9525 62.0464 20.3969ZM66.9228 18.3536H72.9687C72.9993 18.3532 73.0295 18.3463 73.0572 18.3333C73.0849 18.3203 73.1096 18.3014 73.1295 18.2782C73.1494 18.2549 73.1641 18.2277 73.1726 18.1983C73.1812 18.1688 73.1834 18.1379 73.1791 18.1076C72.8891 16.2427 71.8276 15.3102 69.9948 15.3102C69.178 15.2801 68.3802 15.5612 67.7625 16.0965C67.2264 16.572 66.874 17.2429 66.7052 18.1095C66.7009 18.1395 66.703 18.1702 66.7115 18.1994C66.72 18.2286 66.7346 18.2556 66.7543 18.2787C66.774 18.3018 66.7985 18.3204 66.826 18.3334C66.8535 18.3463 66.8834 18.3532 66.9138 18.3536H66.9228Z" fill="white"/>
<path d="M84.5115 28.1581L78.6277 12.8515C78.6152 12.8196 78.6108 12.7851 78.6146 12.751C78.6185 12.717 78.6306 12.6844 78.6499 12.6561C78.6693 12.6278 78.6952 12.6047 78.7255 12.5887C78.7559 12.5728 78.7896 12.5644 78.8239 12.5645H83.0548C83.0987 12.5648 83.1414 12.5789 83.1769 12.6048C83.2124 12.6307 83.2389 12.6672 83.2527 12.7089L85.3744 19.0134C85.8166 20.3339 86.0787 21.3722 86.1607 22.1282C86.2922 23.0267 86.3702 23.9323 86.3943 24.8401C86.4021 25.0409 86.4874 25.2309 86.6324 25.3702C86.7773 25.5095 86.9706 25.5872 87.1716 25.5871H87.3178C87.5207 25.5862 87.7152 25.5065 87.8603 25.3647C88.0054 25.223 88.0896 25.0303 88.0952 24.8275C88.1237 23.6389 88.1832 22.688 88.2735 21.9748C88.4443 20.9735 88.6862 19.9856 88.9973 19.0187L91.0263 12.716C91.04 12.6734 91.0669 12.6362 91.1031 12.6099C91.1394 12.5836 91.183 12.5695 91.2278 12.5698H95.3286C95.3624 12.5701 95.3957 12.5784 95.4256 12.5942C95.4556 12.61 95.4813 12.6327 95.5006 12.6605C95.52 12.6882 95.5324 12.7202 95.5369 12.7537C95.5414 12.7873 95.5379 12.8214 95.5265 12.8533L89.9566 28.1474C89.9416 28.1878 89.9146 28.2226 89.8792 28.2471C89.8438 28.2717 89.8017 28.2848 89.7586 28.2847H84.704C84.663 28.2848 84.6229 28.2729 84.5887 28.2504C84.5544 28.2279 84.5276 28.1958 84.5115 28.1581Z" fill="white"/>
<path d="M98.0211 10.2162V6.42201C98.0218 6.39407 98.028 6.36655 98.0394 6.34105C98.0509 6.31555 98.0673 6.29258 98.0877 6.27349C98.1081 6.2544 98.1321 6.23958 98.1584 6.22987C98.1846 6.22017 98.2124 6.2158 98.2404 6.21699H102.569C102.597 6.21699 102.624 6.22243 102.65 6.23301C102.675 6.24358 102.699 6.25909 102.718 6.27863C102.738 6.29816 102.753 6.32135 102.764 6.34688C102.774 6.3724 102.78 6.39978 102.78 6.42741V10.2215C102.78 10.2491 102.774 10.2765 102.764 10.302C102.753 10.3275 102.738 10.3507 102.718 10.3703C102.699 10.3898 102.675 10.4053 102.65 10.4159C102.624 10.4265 102.597 10.4319 102.569 10.4319H98.2404C98.2115 10.4331 98.1828 10.4284 98.1558 10.4181C98.1289 10.4077 98.1044 10.3919 98.0838 10.3717C98.0633 10.3514 98.0471 10.3272 98.0363 10.3004C98.0255 10.2737 98.0203 10.245 98.0211 10.2162ZM98.1779 28.0831V12.7746C98.1779 12.747 98.1834 12.7197 98.194 12.6942C98.2045 12.6687 98.22 12.6455 98.2396 12.6259C98.2591 12.6064 98.2823 12.5909 98.3078 12.5803C98.3334 12.5697 98.3607 12.5643 98.3884 12.5643H102.436C102.463 12.5643 102.49 12.5697 102.516 12.5803C102.541 12.5909 102.564 12.6065 102.584 12.626C102.603 12.6456 102.618 12.6688 102.629 12.6943C102.639 12.7198 102.644 12.7471 102.644 12.7746V28.0831C102.644 28.1105 102.639 28.1376 102.628 28.1629C102.618 28.1882 102.603 28.2112 102.583 28.2305C102.564 28.2499 102.541 28.2652 102.515 28.2757C102.49 28.2862 102.463 28.2916 102.436 28.2916H98.3884C98.3608 28.2919 98.3335 28.2866 98.308 28.2762C98.2825 28.2659 98.2592 28.2505 98.2397 28.2311C98.2201 28.2118 98.2046 28.1887 98.194 28.1632C98.1834 28.1378 98.1779 28.1106 98.1779 28.0831Z" fill="white"/>
<path d="M105.794 24.1732L109.451 23.0107C109.478 23.0023 109.506 22.9994 109.534 23.002C109.561 23.0047 109.588 23.0129 109.613 23.0262C109.637 23.0395 109.659 23.0576 109.676 23.0795C109.693 23.1014 109.706 23.1265 109.713 23.1534C109.897 23.7212 110.188 24.2485 110.571 24.7063C111.033 25.2947 111.925 25.5883 113.245 25.5871C113.978 25.5871 114.559 25.4403 114.991 25.1467C115.187 25.0297 115.35 24.864 115.463 24.6656C115.576 24.4672 115.636 24.2429 115.636 24.0145C115.645 23.8173 115.61 23.6207 115.533 23.4386C115.457 23.2565 115.342 23.0935 115.196 22.9608C114.902 22.6987 114.397 22.4955 113.686 22.3475L111.452 21.9071C109.628 21.5505 108.302 21.0156 107.472 20.3024C106.997 19.8881 106.648 19.3479 106.467 18.7441C105.798 16.6563 106.925 13.9302 108.877 12.9389C109.98 12.3755 111.352 12.0938 112.994 12.0938C114.713 12.0938 116.144 12.4503 117.287 13.1635C118.357 13.828 119.108 14.6113 119.541 15.5135C119.565 15.5658 119.567 15.6252 119.547 15.679C119.527 15.7327 119.486 15.7764 119.434 15.8005L116.146 17.2893C116.12 17.3004 116.093 17.3062 116.065 17.3064C116.037 17.3067 116.009 17.3013 115.983 17.2907C115.957 17.28 115.934 17.2644 115.914 17.2445C115.894 17.2247 115.879 17.2011 115.868 17.1751C115.302 15.8427 114.271 15.1765 112.773 15.1765C112.06 15.1765 111.509 15.3126 111.122 15.5848C110.939 15.7035 110.79 15.8668 110.688 16.0593C110.587 16.2518 110.536 16.4671 110.541 16.6848C110.528 16.8749 110.563 17.0651 110.642 17.2383C110.722 17.4114 110.843 17.5619 110.995 17.6762C111.301 17.8972 111.872 18.0809 112.71 18.2271L114.88 18.6354C118.488 19.3272 120.292 20.9633 120.292 23.5439C120.312 24.2885 120.143 25.0261 119.802 25.6884C119.461 26.3508 118.959 26.9163 118.341 27.3326C117.039 28.2669 115.257 28.7334 112.992 28.7322C111.126 28.7322 109.506 28.3233 108.132 27.5055C106.824 26.7282 105.997 25.7042 105.65 24.4335C105.636 24.3799 105.643 24.3229 105.67 24.2745C105.697 24.226 105.742 24.1897 105.794 24.1732Z" fill="white"/>
<path d="M122.399 20.3969C122.399 17.9864 123.154 15.9996 124.664 14.4366C126.173 12.8735 128.071 12.0926 130.357 12.0938C132.726 12.0938 134.592 12.8693 135.955 14.4205C137.319 15.9716 138 17.9745 138 20.429C138 20.7856 138 21.0833 137.982 21.3026C137.979 21.3558 137.956 21.4057 137.917 21.4422C137.878 21.4787 137.827 21.4989 137.774 21.4988H127.092C127.063 21.4992 127.034 21.5056 127.007 21.5175C126.981 21.5294 126.957 21.5467 126.937 21.5683C126.917 21.5898 126.902 21.6151 126.892 21.6427C126.882 21.6703 126.878 21.6996 126.88 21.7288C126.97 22.8948 127.311 23.7863 127.903 24.4032C128.533 25.0629 129.362 25.3927 130.389 25.3927C131.968 25.3927 133.157 24.5411 133.955 22.8378C133.976 22.7897 134.015 22.7514 134.064 22.7309C134.113 22.7104 134.167 22.7091 134.217 22.7273L137.818 24.1162C137.845 24.1269 137.87 24.143 137.891 24.1635C137.912 24.184 137.928 24.2085 137.939 24.2355C137.95 24.2625 137.955 24.2914 137.955 24.3205C137.954 24.3497 137.948 24.3784 137.936 24.405C137.35 25.6194 136.475 26.6718 135.388 27.4699C134.191 28.3507 132.524 28.791 130.387 28.791C127.975 28.791 126.041 28.0309 124.584 26.5106C123.126 24.9904 122.398 22.9525 122.399 20.3969ZM127.276 18.3536H133.322C133.352 18.3532 133.383 18.3463 133.41 18.3333C133.438 18.3203 133.463 18.3014 133.482 18.2782C133.502 18.2549 133.517 18.2277 133.526 18.1983C133.534 18.1688 133.536 18.1379 133.532 18.1076C133.244 16.2379 132.186 15.3025 130.357 15.3013C129.539 15.271 128.741 15.5519 128.123 16.0875C127.588 16.563 127.235 17.234 127.065 18.1005C127.06 18.1313 127.061 18.163 127.069 18.1933C127.077 18.2236 127.092 18.2517 127.112 18.2758C127.132 18.2999 127.157 18.3194 127.185 18.3328C127.214 18.3463 127.244 18.3533 127.276 18.3536Z" fill="white"/>
<path d="M16.3 27.2307C22.0607 32.1819 29.8611 32.7882 34.2222 28.4253C38.8578 23.7896 37.8843 15.285 32.0577 9.45651C31.7902 9.18921 31.4276 9.03906 31.0494 9.03906C30.6713 9.03906 30.3086 9.18921 30.0412 9.45651L23.3195 16.1782C23.0522 16.4457 22.902 16.8083 22.902 17.1865C22.902 17.5646 23.0522 17.9273 23.3195 18.1948C25.9493 20.8246 27.4113 24.0784 27.5825 27.0417C28.558 26.9484 29.4979 26.6272 30.3264 26.1039C29.9699 23.0729 28.6255 19.9242 26.3041 17.2249L31.0057 12.5268C34.8729 17.141 35.4631 23.1442 32.2056 26.4105C28.6843 29.9318 21.9858 28.9601 17.2699 24.2442C17.0025 23.977 16.6398 23.8268 16.2617 23.8268C15.8835 23.8268 15.5209 23.977 15.2534 24.2442L8.5317 30.966C8.26441 31.2335 8.11426 31.5961 8.11426 31.9742C8.11426 32.3523 8.26441 32.715 8.5317 32.9825C14.3584 38.8092 22.8684 39.7808 27.5005 35.1469C28.259 34.3846 28.8835 33.4998 29.3476 32.5296C28.1814 32.762 26.9898 32.8411 25.8031 32.7649C25.6997 32.888 25.5998 33.0164 25.4839 33.1322C22.2176 36.3968 16.2126 35.7978 11.6002 31.9306L16.3 27.2307Z" fill="url(#paint0_linear_4_2543)"/>
<path d="M20.8495 11.7684C15.0888 6.81717 7.28847 6.21093 2.92738 10.5738C-1.70828 15.2095 -0.733025 23.7159 5.09364 29.5426C5.36111 29.8099 5.72377 29.96 6.1019 29.96C6.48003 29.96 6.8427 29.8099 7.11016 29.5426L13.8301 22.8208C14.0974 22.5534 14.2475 22.1908 14.2475 21.8126C14.2475 21.4345 14.0974 21.0718 13.8301 20.8043C11.2003 18.1745 9.72932 14.9207 9.56885 11.9574C8.59273 12.0504 7.65216 12.3716 6.82311 12.8952C7.1797 15.9262 8.52403 19.0749 10.8436 21.7742L6.14558 26.4723C2.27659 21.858 1.67752 15.8549 4.94388 12.5886C8.46342 9.06726 15.1655 10.0389 19.8796 14.7548C20.1471 15.0221 20.5098 15.1723 20.8879 15.1723C21.266 15.1723 21.6287 15.0221 21.8961 14.7548L28.6178 8.0331C28.8851 7.76563 29.0353 7.40301 29.0353 7.02488C29.0353 6.64675 28.8851 6.28405 28.6178 6.01658C22.7894 0.189912 14.2812 -0.781731 9.64729 3.85214C8.88974 4.61533 8.26539 5.49997 7.80016 6.46945C8.96641 6.23725 10.158 6.15816 11.3447 6.23414C11.4516 6.11111 11.5497 5.98273 11.6638 5.86684C14.932 2.60227 20.9351 3.20129 25.5494 7.0685L20.8495 11.7684Z" fill="url(#paint1_linear_4_2543)"/>
</g>
<defs>
<linearGradient id="paint0_linear_4_2543" x1="38.7471" y1="15.7572" x2="6.41154" y2="36.1568" gradientUnits="userSpaceOnUse">
<stop stop-color="#FE0074"/>
<stop offset="0.48" stop-color="#A454FF"/>
<stop offset="1" stop-color="#20BFFC"/>
</linearGradient>
<linearGradient id="paint1_linear_4_2543" x1="-0.000976562" y1="15.4419" x2="29.0353" y2="15.4419" gradientUnits="userSpaceOnUse">
<stop stop-color="#FE0074"/>
<stop offset="0.48" stop-color="#A454FF"/>
<stop offset="1" stop-color="#20BFFC"/>
</linearGradient>
<clipPath id="clip0_4_2543">
<rect width="138" height="37.1512" fill="white" transform="translate(0 0.924805)"/>
</clipPath>
</defs>
</svg>
